<svg width="32" height="32" viewBox="0 0 32 32" fill="none" xmlns="http://www.w3.org/2000/svg">
<path fill-rule="evenodd" clip-rule="evenodd" d="M16.0115 0C7.15687 0 0 7.1496 0 15.9949C0 23.0655 4.58629 29.0505 10.9485 31.1687C11.7452 31.3279 12.0354 30.8246 12.0354 30.4011C12.0354 30.0303 12.0097 28.7592 12.0097 27.4348C7.55549 28.3884 6.62795 25.5282 6.62795 25.5282C5.91219 23.6745 4.85152 23.198 4.85152 23.198C3.39352 22.2181 4.95766 22.2181 4.95766 22.2181C6.57475 22.3242 7.42339 23.86 7.42339 23.86C8.85466 26.2962 11.161 25.6079 12.0891 25.1852C12.2215 24.1523 12.646 23.4373 13.0966 23.0402C9.54395 22.6692 5.8063 21.2923 5.8063 15.1483C5.8063 13.4007 6.44214 11.9705 7.44961 10.8584C7.29052 10.4614 6.73384 8.81978 7.60895 6.62133C7.60895 6.62133 8.96081 6.19755 12.0094 8.26322C14.6306 7.55683 17.3945 7.55683 20.0157 8.26322C23.0646 6.19755 24.4164 6.62133 24.4164 6.62133C25.2903 8.81927 24.7344 10.4614 24.5755 10.8584C25.6095 11.9705 26.2204 13.4007 26.2204 15.1483C26.2204 21.2923 22.4827 22.6427 18.9036 23.0402C19.487 23.5433 19.9903 24.4964 19.9903 26.006C19.9903 28.1509 19.9646 29.8723 19.9646 30.4019C19.9646 30.8257 20.2563 31.329 21.0514 31.1699C27.4142 29.0513 31.9999 23.0662 31.9999 15.9959C32.0236 7.1496 24.8392 0 16.0115 0Z" fill="black"/>
</svg>
